STARTFONT 2.1
FONT -jmk-Modd-Medium-R-Normal--11-100-75-75-C-60-US-ASCII
SIZE 10 75 75
FONTBOUNDINGBOX 6 11 0 -2
STARTPROPERTIES 27
FONTNAME_REGISTRY ""
FOUNDRY "jmk"
FAMILY_NAME "Modd"
WEIGHT_NAME "Medium"
SLANT "R"
SETWIDTH_NAME "Normal"
ADD_STYLE_NAME ""
PIXEL_SIZE 11
POINT_SIZE 100
RESOLUTION_X 75
RESOLUTION_Y 75
SPACING "C"
AVERAGE_WIDTH 60
CHARSET_REGISTRY "US"
CHARSET_ENCODING "ASCII"
COPYRIGHT "Jim Knoble <jmknoble@pobox.com>"
WEIGHT 140
RESOLUTION 75
X_HEIGHT 5
FIGURE_WIDTH 6
QUAD_WIDTH 6
FONT_ASCENT 9
FONT_DESCENT 2
_XMBDFED_INFO "Edited with xmbdfed 3.7."
RELATIVE_WEIGHT 50
RELATIVE_SETWIDTH 50
CAP_HEIGHT 7
ENDPROPERTIES
CHARS 128
STARTCHAR solid box
ENCODING 0
SWIDTH 576 0
DWIDTH 6 0
BBX 6 11 0 -2
BITMAP
00
78
78
78
78
78
78
78
78
78
00
ENDCHAR
STARTCHAR diamond
ENCODING 1
SWIDTH 576 0
DWIDTH 6 0
BBX 6 11 0 -2
BITMAP
00
00
00
20
70
F8
70
20
00
00
00
ENDCHAR
STARTCHAR dithered box
ENCODING 2
SWIDTH 576 0
DWIDTH 6 0
BBX 6 11 0 -2
BITMAP
00
54
A8
54
A8
54
A8
54
A8
54
A8
ENDCHAR
STARTCHAR horizontal tab visible control
ENCODING 3
SWIDTH 576 0
DWIDTH 6 0
BBX 6 11 0 -2
BITMAP
00
00
90
90
F0
90
00
38
10
10
10
ENDCHAR
STARTCHAR form feed visible control
ENCODING 4
SWIDTH 576 0
DWIDTH 6 0
BBX 6 11 0 -2
BITMAP
00
70
80
F0
80
80
38
40
78
40
40
ENDCHAR
STARTCHAR carriage return visible control
ENCODING 5
SWIDTH 576 0
DWIDTH 6 0
BBX 6 11 0 -2
BITMAP
00
30
40
80
70
00
70
48
70
50
48
ENDCHAR
STARTCHAR line feed visible control
ENCODING 6
SWIDTH 576 0
DWIDTH 6 0
BBX 6 11 0 -2
BITMAP
00
80
80
80
70
00
38
40
78
40
40
ENDCHAR
STARTCHAR degree sign
ENCODING 7
SWIDTH 576 0
DWIDTH 6 0
BBX 6 11 0 -2
BITMAP
00
30
48
48
30
00
00
00
00
00
00
ENDCHAR
STARTCHAR plus-minus-sign
ENCODING 8
SWIDTH 576 0
DWIDTH 6 0
BBX 6 11 0 -2
BITMAP
00
00
20
20
F8
20
20
00
F8
00
00
ENDCHAR
STARTCHAR null visible control
ENCODING 9
SWIDTH 576 0
DWIDTH 6 0
BBX 6 11 0 -2
BITMAP
00
E0
90
90
90
00
40
40
40
40
38
ENDCHAR
STARTCHAR vertical tab visible control
ENCODING 10
SWIDTH 576 0
DWIDTH 6 0
BBX 6 11 0 -2
BITMAP
00
00
90
90
A0
C0
00
38
10
10
10
ENDCHAR
STARTCHAR box drawing lower right corner
ENCODING 11
SWIDTH 576 0
DWIDTH 6 0
BBX 6 11 0 -2
BITMAP
20
20
20
20
20
E0
00
00
00
00
00
ENDCHAR
STARTCHAR box drawing upper right corner
ENCODING 12
SWIDTH 576 0
DWIDTH 6 0
BBX 6 11 0 -2
BITMAP
00
00
00
00
00
E0
20
20
20
20
20
ENDCHAR
STARTCHAR box drawing upper left corner
ENCODING 13
SWIDTH 576 0
DWIDTH 6 0
BBX 6 11 0 -2
BITMAP
00
00
00
00
00
3C
20
20
20
20
20
ENDCHAR
STARTCHAR box drawing lower left corner
ENCODING 14
SWIDTH 576 0
DWIDTH 6 0
BBX 6 11 0 -2
BITMAP
20
20
20
20
20
3C
00
00
00
00
00
ENDCHAR
STARTCHAR box drawing cross
ENCODING 15
SWIDTH 576 0
DWIDTH 6 0
BBX 6 11 0 -2
BITMAP
20
20
20
20
20
FC
20
20
20
20
20
ENDCHAR
STARTCHAR box drawing horizontal line high
ENCODING 16
SWIDTH 576 0
DWIDTH 6 0
BBX 6 11 0 -2
BITMAP
00
FC
00
00
00
00
00
00
00
00
00
ENDCHAR
STARTCHAR box drawing horizontal line medium high
ENCODING 17
SWIDTH 576 0
DWIDTH 6 0
BBX 6 11 0 -2
BITMAP
00
00
00
FC
00
00
00
00
00
00
00
ENDCHAR
STARTCHAR box drawing horizontal line middle
ENCODING 18
SWIDTH 576 0
DWIDTH 6 0
BBX 6 11 0 -2
BITMAP
00
00
00
00
00
FC
00
00
00
00
00
ENDCHAR
STARTCHAR box drawing horizontal line medium low
ENCODING 19
SWIDTH 576 0
DWIDTH 6 0
BBX 6 11 0 -2
BITMAP
00
00
00
00
00
00
00
FC
00
00
00
ENDCHAR
STARTCHAR box drawing horizontal line low
ENCODING 20
SWIDTH 576 0
DWIDTH 6 0
BBX 6 11 0 -2
BITMAP
00
00
00
00
00
00
00
00
00
FC
00
ENDCHAR
STARTCHAR box drawing left tee
ENCODING 21
SWIDTH 576 0
DWIDTH 6 0
BBX 6 11 0 -2
BITMAP
20
20
20
20
20
3C
20
20
20
20
20
ENDCHAR
STARTCHAR box drawing right tee
ENCODING 22
SWIDTH 576 0
DWIDTH 6 0
BBX 6 11 0 -2
BITMAP
20
20
20
20
20
E0
20
20
20
20
20
ENDCHAR
STARTCHAR box drawing lower tee
ENCODING 23
SWIDTH 576 0
DWIDTH 6 0
BBX 6 11 0 -2
BITMAP
20
20
20
20
20
FC
00
00
00
00
00
ENDCHAR
STARTCHAR box drawing upper tee
ENCODING 24
SWIDTH 576 0
DWIDTH 6 0
BBX 6 11 0 -2
BITMAP
00
00
00
00
00
FC
20
20
20
20
20
ENDCHAR
STARTCHAR box drawing vertical line
ENCODING 25
SWIDTH 576 0
DWIDTH 6 0
BBX 6 11 0 -2
BITMAP
20
20
20
20
20
20
20
20
20
20
20
ENDCHAR
STARTCHAR less-than-or-equal sign
ENCODING 26
SWIDTH 576 0
DWIDTH 6 0
BBX 6 11 0 -2
BITMAP
00
00
10
60
80
60
10
00
F8
00
00
ENDCHAR
STARTCHAR greater-than-or-equal sign
ENCODING 27
SWIDTH 576 0
DWIDTH 6 0
BBX 6 11 0 -2
BITMAP
00
00
40
30
08
30
40
00
F8
00
00
ENDCHAR
STARTCHAR greek small letter pi
ENCODING 28
SWIDTH 576 0
DWIDTH 6 0
BBX 6 11 0 -2
BITMAP
00
00
00
00
F8
50
50
50
48
00
00
ENDCHAR
STARTCHAR not-equal sign
ENCODING 29
SWIDTH 576 0
DWIDTH 6 0
BBX 6 11 0 -2
BITMAP
00
00
00
08
78
10
78
20
40
00
00
ENDCHAR
STARTCHAR pound sign
ENCODING 30
SWIDTH 576 0
DWIDTH 6 0
BBX 6 11 0 -2
BITMAP
00
00
30
48
40
F0
40
80
F8
00
00
ENDCHAR
STARTCHAR middle dot
ENCODING 31
SWIDTH 576 0
DWIDTH 6 0
BBX 6 11 0 -2
BITMAP
00
00
00
00
20
20
00
00
00
00
00
ENDCHAR
STARTCHAR U+0020 space
ENCODING 32
SWIDTH 576 0
DWIDTH 6 0
BBX 6 11 0 -2
BITMAP
00
00
00
00
00
00
00
00
00
00
00
ENDCHAR
STARTCHAR U+0021 exclamation mark
ENCODING 33
SWIDTH 576 0
DWIDTH 6 0
BBX 6 11 0 -2
BITMAP
00
00
20
20
20
20
20
00
20
00
00
ENDCHAR
STARTCHAR U+0022 quotation mark
ENCODING 34
SWIDTH 576 0
DWIDTH 6 0
BBX 6 11 0 -2
BITMAP
00
50
50
50
00
00
00
00
00
00
00
ENDCHAR
STARTCHAR U+0023 number sign
ENCODING 35
SWIDTH 576 0
DWIDTH 6 0
BBX 6 11 0 -2
BITMAP
00
00
50
50
D8
50
D8
50
50
00
00
ENDCHAR
STARTCHAR U+0024 dollar sign
ENCODING 36
SWIDTH 576 0
DWIDTH 6 0
BBX 6 11 0 -2
BITMAP
00
20
20
78
80
70
08
F0
20
20
00
ENDCHAR
STARTCHAR U+0025 percent sign
ENCODING 37
SWIDTH 576 0
DWIDTH 6 0
BBX 6 11 0 -2
BITMAP
00
00
68
A8
D0
20
58
A8
B0
00
00
ENDCHAR
STARTCHAR U+0026 ampersand
ENCODING 38
SWIDTH 576 0
DWIDTH 6 0
BBX 6 11 0 -2
BITMAP
00
00
60
90
80
48
B0
90
68
00
00
ENDCHAR
STARTCHAR U+0027 apostrophe
ENCODING 39
SWIDTH 576 0
DWIDTH 6 0
BBX 6 11 0 -2
BITMAP
00
20
20
40
00
00
00
00
00
00
00
ENDCHAR
STARTCHAR U+0028 left parenthesis
ENCODING 40
SWIDTH 576 0
DWIDTH 6 0
BBX 6 11 0 -2
BITMAP
00
10
20
40
40
40
40
40
20
10
00
ENDCHAR
STARTCHAR U+0029 right parenthesis
ENCODING 41
SWIDTH 576 0
DWIDTH 6 0
BBX 6 11 0 -2
BITMAP
00
40
20
10
10
10
10
10
20
40
00
ENDCHAR
STARTCHAR U+002a asterisk
ENCODING 42
SWIDTH 576 0
DWIDTH 6 0
BBX 6 11 0 -2
BITMAP
00
00
00
20
A8
70
A8
20
00
00
00
ENDCHAR
STARTCHAR U+002b plus sign
ENCODING 43
SWIDTH 576 0
DWIDTH 6 0
BBX 6 11 0 -2
BITMAP
00
00
00
20
20
F8
20
20
00
00
00
ENDCHAR
STARTCHAR U+002c comma
ENCODING 44
SWIDTH 576 0
DWIDTH 6 0
BBX 6 11 0 -2
BITMAP
00
00
00
00
00
00
00
20
20
40
00
ENDCHAR
STARTCHAR U+002d hyphen-minus
ENCODING 45
SWIDTH 576 0
DWIDTH 6 0
BBX 6 11 0 -2
BITMAP
00
00
00
00
00
78
00
00
00
00
00
ENDCHAR
STARTCHAR U+002e period
ENCODING 46
SWIDTH 576 0
DWIDTH 6 0
BBX 6 11 0 -2
BITMAP
00
00
00
00
00
00
00
20
20
00
00
ENDCHAR
STARTCHAR U+002f forward slash
ENCODING 47
SWIDTH 576 0
DWIDTH 6 0
BBX 6 11 0 -2
BITMAP
00
00
08
10
10
20
20
40
40
80
00
ENDCHAR
STARTCHAR U+0030 digit zero
ENCODING 48
SWIDTH 576 0
DWIDTH 6 0
BBX 6 11 0 -2
BITMAP
00
00
30
48
88
A8
88
90
60
00
00
ENDCHAR
STARTCHAR U+0031 digit one
ENCODING 49
SWIDTH 576 0
DWIDTH 6 0
BBX 6 11 0 -2
BITMAP
00
00
20
E0
20
20
20
20
20
00
00
ENDCHAR
STARTCHAR U+0032 digit two
ENCODING 50
SWIDTH 576 0
DWIDTH 6 0
BBX 6 11 0 -2
BITMAP
00
00
F0
08
10
20
40
80
F8
00
00
ENDCHAR
STARTCHAR U+0033 digit three
ENCODING 51
SWIDTH 576 0
DWIDTH 6 0
BBX 6 11 0 -2
BITMAP
00
00
F0
08
10
20
10
08
F0
00
00
ENDCHAR
STARTCHAR U+0034 digit four
ENCODING 52
SWIDTH 576 0
DWIDTH 6 0
BBX 6 11 0 -2
BITMAP
00
00
10
90
90
90
78
10
10
00
00
ENDCHAR
STARTCHAR U+0035 digit five
ENCODING 53
SWIDTH 576 0
DWIDTH 6 0
BBX 6 11 0 -2
BITMAP
00
00
F8
80
E0
10
08
08
F0
00
00
ENDCHAR
STARTCHAR U+0036 digit six
ENCODING 54
SWIDTH 576 0
DWIDTH 6 0
BBX 6 11 0 -2
BITMAP
00
00
30
40
80
E0
90
88
70
00
00
ENDCHAR
STARTCHAR U+0037 digit seven
ENCODING 55
SWIDTH 576 0
DWIDTH 6 0
BBX 6 11 0 -2
BITMAP
00
00
F8
08
10
20
40
40
40
00
00
ENDCHAR
STARTCHAR U+0038 digit eight
ENCODING 56
SWIDTH 576 0
DWIDTH 6 0
BBX 6 11 0 -2
BITMAP
00
00
70
88
50
20
50
88
70
00
00
ENDCHAR
STARTCHAR U+0039 digit nine
ENCODING 57
SWIDTH 576 0
DWIDTH 6 0
BBX 6 11 0 -2
BITMAP
00
00
70
88
48
38
08
10
60
00
00
ENDCHAR
STARTCHAR U+003a colon
ENCODING 58
SWIDTH 576 0
DWIDTH 6 0
BBX 6 11 0 -2
BITMAP
00
00
00
00
20
20
00
20
20
00
00
ENDCHAR
STARTCHAR U+003b semicolon
ENCODING 59
SWIDTH 576 0
DWIDTH 6 0
BBX 6 11 0 -2
BITMAP
00
00
00
00
20
20
00
20
20
40
00
ENDCHAR
STARTCHAR U+003c less-than sign
ENCODING 60
SWIDTH 576 0
DWIDTH 6 0
BBX 6 11 0 -2
BITMAP
00
00
00
08
30
40
30
08
00
00
00
ENDCHAR
STARTCHAR U+003d equals sign
ENCODING 61
SWIDTH 576 0
DWIDTH 6 0
BBX 6 11 0 -2
BITMAP
00
00
00
00
78
00
78
00
00
00
00
ENDCHAR
STARTCHAR U+003e greater-than sign
ENCODING 62
SWIDTH 576 0
DWIDTH 6 0
BBX 6 11 0 -2
BITMAP
00
00
00
40
30
08
30
40
00
00
00
ENDCHAR
STARTCHAR U+003f question mark
ENCODING 63
SWIDTH 576 0
DWIDTH 6 0
BBX 6 11 0 -2
BITMAP
00
00
70
08
30
40
20
00
20
00
00
ENDCHAR
STARTCHAR U+0040 at sign
ENCODING 64
SWIDTH 576 0
DWIDTH 6 0
BBX 6 11 0 -2
BITMAP
00
00
30
48
98
A8
B0
80
70
00
00
ENDCHAR
STARTCHAR U+0041 latin capital letter A
ENCODING 65
SWIDTH 576 0
DWIDTH 6 0
BBX 6 11 0 -2
BITMAP
00
00
18
28
48
88
F8
88
88
00
00
ENDCHAR
STARTCHAR U+0042 latin capital letter B
ENCODING 66
SWIDTH 576 0
DWIDTH 6 0
BBX 6 11 0 -2
BITMAP
00
00
E0
90
E0
90
88
88
F0
00
00
ENDCHAR
STARTCHAR U+0043 latin capital letter C
ENCODING 67
SWIDTH 576 0
DWIDTH 6 0
BBX 6 11 0 -2
BITMAP
00
00
38
40
80
80
80
80
78
00
00
ENDCHAR
STARTCHAR U+0044 latin capital letter D
ENCODING 68
SWIDTH 576 0
DWIDTH 6 0
BBX 6 11 0 -2
BITMAP
00
00
E0
90
88
88
88
88
F0
00
00
ENDCHAR
STARTCHAR U+0045 latin capital letter E
ENCODING 69
SWIDTH 576 0
DWIDTH 6 0
BBX 6 11 0 -2
BITMAP
00
00
78
80
F8
80
80
80
78
00
00
ENDCHAR
STARTCHAR U+0046 latin capital letter F
ENCODING 70
SWIDTH 576 0
DWIDTH 6 0
BBX 6 11 0 -2
BITMAP
00
00
78
80
F8
80
80
80
80
00
00
ENDCHAR
STARTCHAR U+0047 latin capital letter G
ENCODING 71
SWIDTH 576 0
DWIDTH 6 0
BBX 6 11 0 -2
BITMAP
00
00
30
40
98
88
88
88
70
00
00
ENDCHAR
STARTCHAR U+0048 latin capital letter H
ENCODING 72
SWIDTH 576 0
DWIDTH 6 0
BBX 6 11 0 -2
BITMAP
00
00
88
88
88
88
F8
88
88
00
00
ENDCHAR
STARTCHAR U+0049 latin capital letter I
ENCODING 73
SWIDTH 576 0
DWIDTH 6 0
BBX 6 11 0 -2
BITMAP
00
00
70
20
20
20
20
20
70
00
00
ENDCHAR
STARTCHAR U+004a latin capital letter J
ENCODING 74
SWIDTH 576 0
DWIDTH 6 0
BBX 6 11 0 -2
BITMAP
00
00
70
10
10
10
10
20
C0
00
00
ENDCHAR
STARTCHAR U+004b latin capital letter K
ENCODING 75
SWIDTH 576 0
DWIDTH 6 0
BBX 6 11 0 -2
BITMAP
00
00
90
A0
C0
A0
90
88
88
00
00
ENDCHAR
STARTCHAR U+004c latin capital letter L
ENCODING 76
SWIDTH 576 0
DWIDTH 6 0
BBX 6 11 0 -2
BITMAP
00
00
80
80
80
80
80
80
78
00
00
ENDCHAR
STARTCHAR U+004d latin capital letter M
ENCODING 77
SWIDTH 576 0
DWIDTH 6 0
BBX 6 11 0 -2
BITMAP
00
00
88
D8
A8
88
88
88
88
00
00
ENDCHAR
STARTCHAR U+004e latin capital letter N
ENCODING 78
SWIDTH 576 0
DWIDTH 6 0
BBX 6 11 0 -2
BITMAP
00
00
E0
90
88
88
88
88
88
00
00
ENDCHAR
STARTCHAR U+004f latin capital letter O
ENCODING 79
SWIDTH 576 0
DWIDTH 6 0
BBX 6 11 0 -2
BITMAP
00
00
70
88
88
88
88
90
60
00
00
ENDCHAR
STARTCHAR U+0050 latin capital letter P
ENCODING 80
SWIDTH 576 0
DWIDTH 6 0
BBX 6 11 0 -2
BITMAP
00
00
F0
88
88
90
E0
80
80
00
00
ENDCHAR
STARTCHAR U+0051 latin capital letter Q
ENCODING 81
SWIDTH 576 0
DWIDTH 6 0
BBX 6 11 0 -2
BITMAP
00
00
30
48
88
88
A8
90
68
08
00
ENDCHAR
STARTCHAR U+0052 latin capital letter R
ENCODING 82
SWIDTH 576 0
DWIDTH 6 0
BBX 6 11 0 -2
BITMAP
00
00
F0
88
88
90
E0
90
88
00
00
ENDCHAR
STARTCHAR U+0053 latin capital letter S
ENCODING 83
SWIDTH 576 0
DWIDTH 6 0
BBX 6 11 0 -2
BITMAP
00
00
78
80
40
20
10
08
F0
00
00
ENDCHAR
STARTCHAR U+0054 latin capital letter T
ENCODING 84
SWIDTH 576 0
DWIDTH 6 0
BBX 6 11 0 -2
BITMAP
00
00
F8
20
20
20
20
20
20
00
00
ENDCHAR
STARTCHAR U+0055 latin capital letter U
ENCODING 85
SWIDTH 576 0
DWIDTH 6 0
BBX 6 11 0 -2
BITMAP
00
00
88
88
88
88
88
48
30
00
00
ENDCHAR
STARTCHAR U+0056 latin capital letter V
ENCODING 86
SWIDTH 576 0
DWIDTH 6 0
BBX 6 11 0 -2
BITMAP
00
00
88
88
88
88
90
A0
C0
00
00
ENDCHAR
STARTCHAR U+0057 latin capital letter W
ENCODING 87
SWIDTH 576 0
DWIDTH 6 0
BBX 6 11 0 -2
BITMAP
00
00
88
88
A8
A8
A8
B0
E0
00
00
ENDCHAR
STARTCHAR U+0058 latin capital letter X
ENCODING 88
SWIDTH 576 0
DWIDTH 6 0
BBX 6 11 0 -2
BITMAP
00
00
88
50
20
50
50
88
88
00
00
ENDCHAR
STARTCHAR U+0059 latin capital letter Y
ENCODING 89
SWIDTH 576 0
DWIDTH 6 0
BBX 6 11 0 -2
BITMAP
00
00
88
88
48
30
10
10
10
00
00
ENDCHAR
STARTCHAR U+005a latin capital letter Z
ENCODING 90
SWIDTH 576 0
DWIDTH 6 0
BBX 6 11 0 -2
BITMAP
00
00
F8
10
20
40
80
80
F8
00
00
ENDCHAR
STARTCHAR U+005b left square bracket
ENCODING 91
SWIDTH 576 0
DWIDTH 6 0
BBX 6 11 0 -2
BITMAP
00
70
40
40
40
40
40
40
40
70
00
ENDCHAR
STARTCHAR U+005c backslash
ENCODING 92
SWIDTH 576 0
DWIDTH 6 0
BBX 6 11 0 -2
BITMAP
00
00
80
40
40
20
20
10
10
08
00
ENDCHAR
STARTCHAR U+005d right square bracket
ENCODING 93
SWIDTH 576 0
DWIDTH 6 0
BBX 6 11 0 -2
BITMAP
00
70
10
10
10
10
10
10
10
70
00
ENDCHAR
STARTCHAR U+005e circumflex
ENCODING 94
SWIDTH 576 0
DWIDTH 6 0
BBX 6 11 0 -2
BITMAP
00
00
20
50
50
88
00
00
00
00
00
ENDCHAR
STARTCHAR U+005f underscore
ENCODING 95
SWIDTH 576 0
DWIDTH 6 0
BBX 6 11 0 -2
BITMAP
00
00
00
00
00
00
00
00
00
F8
00
ENDCHAR
STARTCHAR U+0060 grave accent
ENCODING 96
SWIDTH 576 0
DWIDTH 6 0
BBX 6 11 0 -2
BITMAP
00
20
20
10
00
00
00
00
00
00
00
ENDCHAR
STARTCHAR U+0061 latin small letter a
ENCODING 97
SWIDTH 576 0
DWIDTH 6 0
BBX 6 11 0 -2
BITMAP
00
00
00
00
38
48
88
88
78
00
00
ENDCHAR
STARTCHAR U+0062 latin small letter b
ENCODING 98
SWIDTH 576 0
DWIDTH 6 0
BBX 6 11 0 -2
BITMAP
00
00
80
80
F0
88
88
90
60
00
00
ENDCHAR
STARTCHAR U+0063 latin small letter c
ENCODING 99
SWIDTH 576 0
DWIDTH 6 0
BBX 6 11 0 -2
BITMAP
00
00
00
00
30
40
80
80
70
00
00
ENDCHAR
STARTCHAR U+0064 latin small letter d
ENCODING 100
SWIDTH 576 0
DWIDTH 6 0
BBX 6 11 0 -2
BITMAP
00
00
08
08
38
48
88
88
70
00
00
ENDCHAR
STARTCHAR U+0065 latin small letter e
ENCODING 101
SWIDTH 576 0
DWIDTH 6 0
BBX 6 11 0 -2
BITMAP
00
00
00
00
30
48
90
A0
78
00
00
ENDCHAR
STARTCHAR U+0066 latin small letter f
ENCODING 102
SWIDTH 576 0
DWIDTH 6 0
BBX 6 11 0 -2
BITMAP
00
00
18
20
40
70
40
40
40
00
00
ENDCHAR
STARTCHAR U+0067 latin small letter g
ENCODING 103
SWIDTH 576 0
DWIDTH 6 0
BBX 6 11 0 -2
BITMAP
00
00
00
00
38
48
88
88
78
08
70
ENDCHAR
STARTCHAR U+0068 latin small letter h
ENCODING 104
SWIDTH 576 0
DWIDTH 6 0
BBX 6 11 0 -2
BITMAP
00
00
80
80
E0
90
88
88
88
00
00
ENDCHAR
STARTCHAR U+0069 latin small letter i
ENCODING 105
SWIDTH 576 0
DWIDTH 6 0
BBX 6 11 0 -2
BITMAP
00
00
20
00
20
20
20
20
20
00
00
ENDCHAR
STARTCHAR U+006a latin small letter j
ENCODING 106
SWIDTH 576 0
DWIDTH 6 0
BBX 6 11 0 -2
BITMAP
00
00
10
00
10
10
10
10
10
20
C0
ENDCHAR
STARTCHAR U+006b latin small letter k
ENCODING 107
SWIDTH 576 0
DWIDTH 6 0
BBX 6 11 0 -2
BITMAP
00
00
80
80
90
A0
D0
88
88
00
00
ENDCHAR
STARTCHAR U+006c latin small letter l
ENCODING 108
SWIDTH 576 0
DWIDTH 6 0
BBX 6 11 0 -2
BITMAP
00
00
40
40
40
40
40
20
10
00
00
ENDCHAR
STARTCHAR U+006d latin small letter m
ENCODING 109
SWIDTH 576 0
DWIDTH 6 0
BBX 6 11 0 -2
BITMAP
00
00
00
00
F0
A8
A8
A8
88
00
00
ENDCHAR
STARTCHAR U+006e latin small letter n
ENCODING 110
SWIDTH 576 0
DWIDTH 6 0
BBX 6 11 0 -2
BITMAP
00
00
00
00
E0
90
88
88
88
00
00
ENDCHAR
STARTCHAR U+006f latin small letter o
ENCODING 111
SWIDTH 576 0
DWIDTH 6 0
BBX 6 11 0 -2
BITMAP
00
00
00
00
70
88
88
90
60
00
00
ENDCHAR
STARTCHAR U+0070 latin small letter p
ENCODING 112
SWIDTH 576 0
DWIDTH 6 0
BBX 6 11 0 -2
BITMAP
00
00
00
00
70
88
88
90
E0
80
80
ENDCHAR
STARTCHAR U+0071 latin small letter q
ENCODING 113
SWIDTH 576 0
DWIDTH 6 0
BBX 6 11 0 -2
BITMAP
00
00
00
00
30
48
88
88
78
08
08
ENDCHAR
STARTCHAR U+0072 latin small letter r
ENCODING 114
SWIDTH 576 0
DWIDTH 6 0
BBX 6 11 0 -2
BITMAP
00
00
00
00
18
20
40
40
40
00
00
ENDCHAR
STARTCHAR U+0073 latin small letter s
ENCODING 115
SWIDTH 576 0
DWIDTH 6 0
BBX 6 11 0 -2
BITMAP
00
00
00
00
78
80
70
08
F0
00
00
ENDCHAR
STARTCHAR U+0074 latin small letter t
ENCODING 116
SWIDTH 576 0
DWIDTH 6 0
BBX 6 11 0 -2
BITMAP
00
00
40
40
70
40
40
20
18
00
00
ENDCHAR
STARTCHAR U+0075 latin small letter u
ENCODING 117
SWIDTH 576 0
DWIDTH 6 0
BBX 6 11 0 -2
BITMAP
00
00
00
00
88
88
88
48
38
00
00
ENDCHAR
STARTCHAR U+0076 latin small letter v
ENCODING 118
SWIDTH 576 0
DWIDTH 6 0
BBX 6 11 0 -2
BITMAP
00
00
00
00
88
88
90
A0
C0
00
00
ENDCHAR
STARTCHAR U+0077 latin small letter w
ENCODING 119
SWIDTH 576 0
DWIDTH 6 0
BBX 6 11 0 -2
BITMAP
00
00
00
00
88
A8
A8
B0
E0
00
00
ENDCHAR
STARTCHAR U+0078 latin small letter x
ENCODING 120
SWIDTH 576 0
DWIDTH 6 0
BBX 6 11 0 -2
BITMAP
00
00
00
00
88
50
20
50
88
00
00
ENDCHAR
STARTCHAR U+0079 latin small letter y
ENCODING 121
SWIDTH 576 0
DWIDTH 6 0
BBX 6 11 0 -2
BITMAP
00
00
00
00
88
88
88
48
38
08
70
ENDCHAR
STARTCHAR U+007a latin small letter z
ENCODING 122
SWIDTH 576 0
DWIDTH 6 0
BBX 6 11 0 -2
BITMAP
00
00
00
00
F8
10
20
40
F8
00
00
ENDCHAR
STARTCHAR U+007b left curly brace
ENCODING 123
SWIDTH 576 0
DWIDTH 6 0
BBX 6 11 0 -2
BITMAP
00
18
20
20
40
80
40
20
20
18
00
ENDCHAR
STARTCHAR U+007c vertical bar
ENCODING 124
SWIDTH 576 0
DWIDTH 6 0
BBX 6 11 0 -2
BITMAP
00
20
20
20
20
20
20
20
20
20
00
ENDCHAR
STARTCHAR U+007d right curly brace
ENCODING 125
SWIDTH 576 0
DWIDTH 6 0
BBX 6 11 0 -2
BITMAP
00
C0
20
20
10
08
10
20
20
C0
00
ENDCHAR
STARTCHAR U+007e tilde
ENCODING 126
SWIDTH 576 0
DWIDTH 6 0
BBX 6 11 0 -2
BITMAP
00
00
00
48
A8
90
00
00
00
00
00
ENDCHAR
STARTCHAR nil
ENCODING 127
SWIDTH 576 0
DWIDTH 6 0
BBX 6 11 0 -2
BITMAP
00
F8
88
88
88
88
88
88
88
F8
00
ENDCHAR
ENDFONT
